HIERARCHY
ROOT Hips
{
	OFFSET -14.64140 90.27770 -84.91600
	CHANNELS 6 Xposition Yposition Zposition Zrotation Xrotation Yrotation
	JOINT Spine
	{
		OFFSET 0.00000 13.20850 -1.60436
		CHANNELS 3 Zrotation Xrotation Yrotation
		JOINT Spine1
		{
			OFFSET 0.00000 8.61716 0.00000
			CHANNELS 3 Zrotation Xrotation Yrotation
			JOINT Spine2
			{
				OFFSET 0.00000 8.61717 0.00000
				CHANNELS 3 Zrotation Xrotation Yrotation
				JOINT Spine3
				{
					OFFSET 0.00000 8.61717 0.00000
					CHANNELS 3 Zrotation Xrotation Yrotation
					JOINT Neck
					{
						OFFSET 0.00000 11.07920 1.10792
						CHANNELS 3 Zrotation Xrotation Yrotation
						JOINT Neck1
						{
							OFFSET 0.00000 7.08032 0.00000
							CHANNELS 3 Zrotation Xrotation Yrotation
							JOINT Head
							{
								OFFSET 0.00000 7.08031 0.00000
								CHANNELS 3 Zrotation Xrotation Yrotation
								End site
								{
									OFFSET 0.00000 0.00000 0.00000
								}
							}
						}
					}
					JOINT RightShoulder
					{
						OFFSET -0.01000 7.91373 5.19711
						CHANNELS 3 Zrotation Xrotation Yrotation
						JOINT RightArm
						{
							OFFSET -18.41580 0.00000 0.00000
							CHANNELS 3 Zrotation Xrotation Yrotation
							JOINT RightForeArm
							{
								OFFSET -29.11090 0.00000 0.00000
								CHANNELS 3 Zrotation Xrotation Yrotation
								JOINT RightHand
								{
									OFFSET -24.65040 0.00000 0.00000
									CHANNELS 3 Zrotation Xrotation Yrotation
									JOINT RightHandThumb1
									{
										OFFSET -5.35114 -0.85590 3.97906
										CHANNELS 3 Zrotation Xrotation Yrotation
										JOINT RightHandThumb2
										{
											OFFSET -4.52789 0.00000 0.00000
											CHANNELS 3 Zrotation Xrotation Yrotation
											JOINT RightHandThumb3
											{
												OFFSET -2.46976 0.00000 0.00000
												CHANNELS 3 Zrotation Xrotation Yrotation
												End site
												{
													OFFSET 0.00000 0.00000 0.00000
												}
											}
										}
									}
									JOINT RightHandIndex1
									{
										OFFSET -14.26970 0.00000 2.88139
										CHANNELS 3 Zrotation Xrotation Yrotation
										JOINT RightHandIndex2
										{
											OFFSET -5.48836 0.00000 0.00000
											CHANNELS 3 Zrotation Xrotation Yrotation
											JOINT RightHandIndex3
											{
												OFFSET -3.01859 0.00000 0.00000
												CHANNELS 3 Zrotation Xrotation Yrotation
												End site
												{
													OFFSET 0.00000 0.00000 0.00000
												}
											}
										}
									}
									JOINT RightHandMiddle1
									{
										OFFSET -14.26970 0.00000 -0.09147
										CHANNELS 3 Zrotation Xrotation Yrotation
										JOINT RightHandMiddle2
										{
											OFFSET -6.17441 0.00000 0.00000
											CHANNELS 3 Zrotation Xrotation Yrotation
											JOINT RightHandMiddle3
											{
												OFFSET -3.56743 0.00000 0.00000
												CHANNELS 3 Zrotation Xrotation Yrotation
												End site
												{
													OFFSET 0.00000 0.00000 0.00000
												}
											}
										}
									}
									JOINT RightHandRing1
									{
										OFFSET -12.69180 0.00000 -3.06433
										CHANNELS 3 Zrotation Xrotation Yrotation
										JOINT RightHandRing2
										{
											OFFSET -5.62556 0.00000 0.00000
											CHANNELS 3 Zrotation Xrotation Yrotation
											JOINT RightHandRing3
											{
												OFFSET -3.56744 0.00000 0.00000
												CHANNELS 3 Zrotation Xrotation Yrotation
												End site
												{
													OFFSET 0.00000 0.00000 0.00000
												}
											}
										}
									}
									JOINT RightHandPinky1
									{
										OFFSET -11.11390 0.00000 -6.03719
										CHANNELS 3 Zrotation Xrotation Yrotation
										JOINT RightHandPinky2
										{
											OFFSET -4.52789 0.00000 0.00000
											CHANNELS 3 Zrotation Xrotation Yrotation
											JOINT RightHandPinky3
											{
												OFFSET -2.46976 0.00000 0.00000
												CHANNELS 3 Zrotation Xrotation Yrotation
												End site
												{
													OFFSET 0.00000 0.00000 0.00000
												}
											}
										}
									}
								}
							}
						}
					}
					JOINT LeftShoulder
					{
						OFFSET 0.01000 7.91373 5.19711
						CHANNELS 3 Zrotation Xrotation Yrotation
						JOINT LeftArm
						{
							OFFSET 18.41580 0.00000 0.00000
							CHANNELS 3 Zrotation Xrotation Yrotation
							JOINT LeftForeArm
							{
								OFFSET 29.11090 0.00000 0.00000
								CHANNELS 3 Zrotation Xrotation Yrotation
								JOINT LeftHand
								{
									OFFSET 24.65040 0.00000 0.00000
									CHANNELS 3 Zrotation Xrotation Yrotation
									JOINT LeftHandThumb1
									{
										OFFSET 5.35114 -0.85590 3.97906
										CHANNELS 3 Zrotation Xrotation Yrotation
										JOINT LeftHandThumb2
										{
											OFFSET 4.52789 0.00000 0.00000
											CHANNELS 3 Zrotation Xrotation Yrotation
											JOINT LeftHandThumb3
											{
												OFFSET 2.46977 0.00000 0.00000
												CHANNELS 3 Zrotation Xrotation Yrotation
												End site
												{
													OFFSET 0.00000 0.00000 0.00000
												}
											}
										}
									}
									JOINT LeftHandIndex1
									{
										OFFSET 14.26970 0.00000 2.88139
										CHANNELS 3 Zrotation Xrotation Yrotation
										JOINT LeftHandIndex2
										{
											OFFSET 5.48836 0.00000 0.00000
											CHANNELS 3 Zrotation Xrotation Yrotation
											JOINT LeftHandIndex3
											{
												OFFSET 3.01859 0.00000 0.00000
												CHANNELS 3 Zrotation Xrotation Yrotation
												End site
												{
													OFFSET 0.00000 0.00000 0.00000
												}
											}
										}
									}
									JOINT LeftHandMiddle1
									{
										OFFSET 14.26970 0.00000 -0.09147
										CHANNELS 3 Zrotation Xrotation Yrotation
										JOINT LeftHandMiddle2
										{
											OFFSET 6.17440 0.00000 0.00000
											CHANNELS 3 Zrotation Xrotation Yrotation
											JOINT LeftHandMiddle3
											{
												OFFSET 3.56744 0.00000 0.00000
												CHANNELS 3 Zrotation Xrotation Yrotation
												End site
												{
													OFFSET 0.00000 0.00000 0.00000
												}
											}
										}
									}
									JOINT LeftHandRing1
									{
										OFFSET 12.69180 0.00000 -3.06433
										CHANNELS 3 Zrotation Xrotation Yrotation
										JOINT LeftHandRing2
										{
											OFFSET 5.62556 0.00000 0.00000
											CHANNELS 3 Zrotation Xrotation Yrotation
											JOINT LeftHandRing3
											{
												OFFSET 3.56744 0.00000 0.00000
												CHANNELS 3 Zrotation Xrotation Yrotation
												End site
												{
													OFFSET 0.00000 0.00000 0.00000
												}
											}
										}
									}
									JOINT LeftHandPinky1
									{
										OFFSET 11.11390 0.00000 -6.03719
										CHANNELS 3 Zrotation Xrotation Yrotation
										JOINT LeftHandPinky2
										{
											OFFSET 4.52789 0.00000 0.00000
											CHANNELS 3 Zrotation Xrotation Yrotation
											JOINT LeftHandPinky3
											{
												OFFSET 2.46976 0.00000 0.00000
												CHANNELS 3 Zrotation Xrotation Yrotation
												End site
												{
													OFFSET 0.00000 0.00000 0.00000
												}
											}
										}
									}
								}
							}
						}
					}
					JOINT pCube4
					{
						OFFSET 0.00000 10.91090 1.10792
						CHANNELS 3 Zrotation Xrotation Yrotation
						End site
						{
							OFFSET 0.00000 0.00000 0.00000
						}
					}
				}
			}
		}
	}
	JOINT RightUpLeg
	{
		OFFSET -9.98441 0.00000 0.00000
		CHANNELS 3 Zrotation Xrotation Yrotation
		JOINT RightLeg
		{
			OFFSET 0.00000 -42.11790 0.00000
			CHANNELS 3 Zrotation Xrotation Yrotation
			JOINT RightFoot
			{
				OFFSET 0.00000 -45.00020 -0.00001
				CHANNELS 3 Zrotation Xrotation Yrotation
				JOINT RightForeFoot
				{
					OFFSET 0.00000 -3.74820 0.00000
					CHANNELS 3 Zrotation Xrotation Yrotation
					JOINT RightToeBase
					{
						OFFSET 0.00000 0.06325 14.43120
						CHANNELS 3 Zrotation Xrotation Yrotation
						End site
						{
							OFFSET 0.00000 0.00000 0.00000
						}
					}
				}
			}
		}
	}
	JOINT LeftUpLeg
	{
		OFFSET 9.98441 0.00000 0.00000
		CHANNELS 3 Zrotation Xrotation Yrotation
		JOINT LeftLeg
		{
			OFFSET 0.00000 -42.11800 0.00000
			CHANNELS 3 Zrotation Xrotation Yrotation
			JOINT LeftFoot
			{
				OFFSET 0.00000 -45.00070 0.00000
				CHANNELS 3 Zrotation Xrotation Yrotation
				JOINT LeftForeFoot
				{
					OFFSET 0.00000 -3.74824 0.00000
					CHANNELS 3 Zrotation Xrotation Yrotation
					JOINT LeftToeBase
					{
						OFFSET 0.00000 0.06325 14.43110
						CHANNELS 3 Zrotation Xrotation Yrotation
						End site
						{
							OFFSET 0.00000 0.00000 0.00000
						}
					}
				}
			}
		}
	}
}
MOTION
Frames: 4
Frame Time: 0.050000
0.01842064954617063 0.005174425232061374 0.04969262340116316 0.008350515413321285 0.00044415949132800277 -0.04229692434624526 3.566992802066778 4.671896808044984 -1.8531234506805299 -0.8123813724135499 3.553375965663022 0.34293748360239373 -0.5433632856928649 -0.6176630613334623 -0.408418423019736 -0.46298364337922554 -0.17992604852773347 -0.5330101858850864 -0.8639872660955794 11.007802702878912 0.4990743405644007 -0.0007532023861429142 -1.261812005598714 1.2602149558693063 -0.060961763304895424 -17.773627797435648 0.1223741550925819 -7.308446215777082 2.9904934072064964 -15.95042787682896 76.1463163583197 -0.793780646254822 6.169160920977808 7.782868185251172 3.212207324467217 86.5384682639651 8.978374072695184 -0.19757847590452562 -2.3793810445229795 4.562678204769884 -0.1725426731938564 -1.5671221243662448 -0.04010126404997224 0.0018966400788479935 -56.24212953814001 0.039810294019807575 0.013143815145864712 -56.20001172991759 -38.816720818872305 0.004932100219996832 0.015321326667656843 0.007741145378784773 -0.011717234193779813 0.004225756197167743 0.02423133222986334 -0.020474328208639012 0.014722243001168062 -36.71997997944974 0.02488126915951641 -0.037831343962573157 0.00023660347172382704 0.03903144543644371 0.039801835136108334 -0.009388410781414678 -0.03602817351336307 0.0014398245944369577 -19.73299451322454 0.025650734342623077 -0.030140609399479282 0.045155574488210636 0.03684252974956968 -0.03811986464647725 0.025021314947110775 -0.04001198280377318 -0.00042197097579574594 24.02566739610509 0.03818242210393608 -0.008988278624919722 28.8518489988496 0.02825196260175929 0.005024569478621905 28.90391060364778 0.004195833913463689 0.027198963378850225 9.508552319364782 2.4298253803575722 13.43435352927422 -68.67043243810781 18.977598639566715 -21.867051306711602 -6.209316154895191 -2.7288546101972355 -88.19108449605346 -7.808291552574756 -3.11804101915485 0.08043803418700544 -0.48948254407242414 0.10382602657053436 -8.148977100466936 -0.01657256009840984 0.039673313891315065 44.603850174405665 -0.019628457351181093 -0.040040777272839924 44.58909669030646 12.417688626236993 -0.01832501927704482 0.003456431110707537 -0.034257604890179594 0.0005686436295533002 -0.02502087747690445 -0.026543714432148383 0.014296092607534451 -0.0034794612046766945 11.11006030846596 0.015901432333066623 0.04250599553099486 0.037246034505569896 -0.005635116617013366 -0.014095905762216795 0.032572964813607545 0.02623821061088505 -0.020906723951004427 4.7281766650604125 -0.025721968152914422 -0.0237565760671125 0.018881166031209186 0.0028310208567793632 0.024674352689081188 -0.04040370735739068 0.03572818261179551 0.014420691109573953 -5.600470210058824 0.008647754015799196 0.015436352469611184 -6.7665228434144655 -0.03587387574518707 -0.015362027808065823 -6.723644375740006 0.025008524808733425 0.014432391998571147 -0.0007584311237865326 -0.04696664653240622 -0.019407855117778348 8.031383767006998 3.5179913804578256 -19.223608118481934 -0.04188784414325308 10.378193919535562 0.02318545456072265 -5.618440324663608 -15.634843082323988 3.151471795891606 -0.03514168266377442 0.028498463689239837 -0.010687342959133561 -0.0035847418873825128 4.682052297763521 0.04327219160988053 12.484185492824183 -8.266757227115129 6.905467932363775 -0.026566111582176512 46.372389704751676 0.03037547910594507 -4.292852912503487 -14.79565995436224 -3.820745913929227 0.002954308171987274 0.009875448187111653 -0.02426750642768584 -0.00473789801024648 -10.703991982568596 0.03221975392077048 
-0.04865575091396407 -0.03865381003063059 -0.0035736932192123524 -0.014952391839224255 -0.03505648973850475 -0.022592665983697604 3.493896955840719 4.52746758392803 -1.88452719850525 -0.8159325382715817 3.559809245715875 0.35230167574357485 -0.6183961944706959 -0.5731357632946903 -0.33653817072175446 -0.3769854106627071 -0.19328196378997287 -0.5409342884501127 -0.7719461917464472 11.129923205937995 0.267701652031317 0.014082002887444864 -1.1415257518885231 0.8656201849510916 0.041958702829105035 -17.46975222939282 0.05173332447165873 -7.18344138619626 2.928838597484906 -16.015231979451194 75.31287016797333 -0.2401417534937192 7.185358934271262 8.361779287908867 3.5179497715334027 86.62162386775182 9.384616930204553 -0.19151758542249198 -2.3988529594693007 4.556393431646385 -0.10218724332890122 -1.6302869509350155 -0.003774425348834025 0.010492476717247677 -56.20459918126073 0.039210023802428585 -0.03859196616038542 -56.22479268622362 -38.810176129428 -0.029484829439342004 0.03208725431910789 0.035699205131822856 -0.0055171497791840305 0.0031621015158111395 0.03194678416511947 -0.00041473318305305083 0.032657665983353415 -36.712211024154556 0.026750449071438576 0.004603204134013075 -0.030755020509089608 0.03103025591031776 -0.03506617409303817 0.03426221939377665 -0.030934457626528307 0.0323974410759019 -19.721242265103214 -0.02533581981488002 -0.015204789015206993 -0.028600553037434504 -0.013922977646208166 -0.015187019141934543 -0.026188657263038137 0.03273329101246846 -0.0478903400203226 24.061937033882334 -0.01899725664515695 -0.007122949602989071 28.850695004675583 0.037024919423612065 0.006846834441214208 28.898261146112926 -0.02928560762724179 -0.03706347266589474 9.247211203530357 2.3365199804335512 13.397037238178417 -68.2111454125799 20.420044803670983 -21.797506295491605 -5.700994030301428 -1.9601629168239587 -88.58397051919218 -9.09512537816809 -3.1866659537384465 0.3185815386743698 -0.5171337623245856 0.045357967646090694 -8.13842978403678 0.04547828868456353 -0.02036627002108464 44.54663913866646 0.017094834285069464 -0.041514399805133974 44.55994228058216 12.471712443831077 -0.017603540549272247 0.01820722559936419 -0.013300277157054037 0.04649172180189167 0.03684289767760089 0.03687628623205032 -0.009605446116951756 -0.04504344979794126 11.123496891551733 -0.0009717593501825975 -0.029630202323282544 -0.018751824862821058 0.04812674582174418 -0.03996956241574617 0.023352041014214037 0.0349990350283332 -0.0022781696214281204 4.743206261069953 -0.023560647999964473 0.00715465890444392 -0.01684337030644257 -0.009429219666110758 -0.007965636528598106 0.041072813112016215 0.045754296362138396 0.026170731277098673 -5.643014254778385 -0.026935277292984804 0.004250410787445409 -6.677136589194042 0.03455572329076438 -0.027032404428790135 -6.766244932260441 -0.011838603675838251 -0.02552527290168568 0.017894713698907976 -0.035212274099890264 -0.025956847091780467 8.059788521139014 3.4666508536965686 -19.24634397586568 -0.0060505495259255415 10.363426614525874 0.028633738076996595 -5.648583363857998 -15.626418920784902 3.167215830773833 -0.011933992313969629 0.007528728133035212 0.0028479699563494307 0.02144080921949205 4.698260658168279 -0.0057620369233296895 12.48862207883554 -8.283842082877584 6.912146795654803 -0.008072913262263733 46.36232808511221 0.049519372913420824 -4.317645370933783 -14.720840774152126 -3.8470980798673495 -0.023150865738830382 0.015399603233314126 -0.03705945217206213 -0.007235605490715269 -10.757893920689558 -0.01223619155219876 
-0.03452869785681547 -0.022083322958909243 -0.004913382479729117 -0.037966636443223255 -0.00828502158648312 -0.03751302425670244 3.3906197991558447 4.500661767253244 -1.838396252659893 -0.84716576498126 3.541889467225703 0.41517835647054246 -0.6534226769401543 -0.5972719592020711 -0.3574800609190697 -0.3839203735527414 -0.1586562771049796 -0.5630298335784872 -0.6761856665724588 11.343049504055745 0.11848093263415016 0.056069182662984454 -0.9625051232263943 0.4683794281836636 0.09737207529930321 -17.134028567139055 0.037728291618682644 -7.27231075515314 2.894881477900468 -15.992774825065306 74.37448477456661 -0.46888260938883825 8.034064077369225 8.740253124186932 3.6680673817075737 87.21298813436165 9.809409069696759 -0.2541960455707404 -2.435430280624896 4.516307159992302 -0.1629965996507498 -1.630113073689031 -0.023315585531788176 -0.020499107898281115 -56.249149215130814 -0.03635307465814872 -0.010538408144378716 -56.246905773748495 -38.760309866948546 -0.03121835910847646 0.022230161929866075 0.007114193825042197 0.02854086470290683 0.04011179282013836 0.007024810307720713 -0.0007700598190214145 0.013756146500708555 -36.66553329496002 -0.04132350654004827 0.01588110249931264 -0.026414065965292992 0.04402485514561523 -0.0224985539026412 -0.02269177663501531 -0.03274303524709194 -0.025689040500844806 -19.78777751804996 -0.021958831245446606 0.02614264031949967 -0.014606461177690868 0.021976108438274626 -0.0021587707603035354 0.042373050018597674 -0.011543341255031068 -0.002179428145094435 24.08068643003589 -0.011159828590033534 -0.008232060453086455 28.816564798666818 0.02228389813204289 -0.0209725332688917 28.906272151734193 -0.029232904381405585 -0.014534691209042903 9.01077212309639 2.299120128667317 13.394702316343981 -67.90232097778369 21.406914883477686 -21.60000506225291 -5.1020596743471 -1.6534250805445592 -89.03964610484057 -10.143949206103136 -3.3401829970903543 0.5332902361629518 -0.4291321614048354 0.029000291568899307 -8.13178439508417 0.016172565524436782 -0.008905169040497787 44.61582513549281 -0.048139539927728195 0.0013618089619723316 44.55196536905594 12.459617632591598 0.026005637140198407 0.008129883085448802 -0.021888429573124125 -0.0410242792824612 -0.028407488932362376 -0.0463107945980087 0.01731078754295472 -0.008061609780456691 11.064558625145164 0.004948918883553681 -0.01424117422858051 -0.0023662457575337917 0.01563644427655395 -0.019701778879450797 0.0016363807324944995 0.028291696084204978 0.024339551095626643 4.785451734839134 0.0012751247897144105 -0.009694695848538052 0.016484477319776182 -0.02374919669107776 -0.006956747049335623 -0.0005775724616983548 -0.022238139550423683 -0.0026370390487586077 -5.5604607480514465 0.007857305637524938 0.02128219339588665 -6.687059343573296 0.001994678378137293 0.019420718893376984 -6.730455482090425 -0.04804267637909576 0.035223915499818105 -0.02807694640357288 -0.0283262563491973 -0.023119326190443018 8.052417130175375 3.521340318135388 -19.218511220271445 0.04084267255351828 10.393114831547349 0.02075052460711102 -5.652779555759483 -15.618873874083766 3.2206485463092576 -0.011414000506284591 0.020403556498874494 0.00022645577237452594 0.030052260815660124 4.659790111477392 -0.049678270098260875 12.497688282846447 -8.249505082843664 6.913947058405781 0.02503663328371018 46.35567656387304 -0.04720550855235922 -4.339896601227401 -14.72870602728885 -3.8693860351811282 -0.036480034688604626 -0.037780623037689864 -0.014293098306394782 -0.03998007637012947 -10.698088625717793 0.029599476748514195 
0.014332041133632088 -0.03853864750902843 -0.028026461549955986 -0.005073107074979576 0.027598687360349834 -0.04789580561089439 3.2497714576813537 4.350233323131685 -1.8081612018747846 -0.8667205376252178 3.555223650249551 0.42454231524733416 -0.6122608815436233 -0.6730428602512065 -0.3633753168980476 -0.311042361771516 -0.1462998133004154 -0.5208278154039093 -0.526748224134969 11.448460473395048 0.0052081100290055395 -0.00893499002242993 -0.7585852034188786 0.03744603248369993 0.08779385203412363 -16.712444552897384 0.002265673384411462 -7.291050155069225 2.904138361714056 -16.0984694043313 73.30216601854578 -1.2241026326607607 8.715830412472277 9.676988723718988 3.624263192948184 87.7882293969433 10.391999818172922 -0.2159871612139848 -2.7332540742916716 4.548348656656055 -0.16031326935793655 -1.5667646156112072 0.01681977566325174 0.006194244634175236 -56.279580629806745 0.028817637044950474 0.020584042439022354 -56.21826136427772 -38.727281216054045 0.03272507613668891 0.018716434638285297 0.022693810689303404 0.03429044363534904 -0.03146744188795027 0.00139135032933909 -0.02446879702548878 -0.0009137536221624936 -36.682490520750434 0.03748669046479306 0.034179482633085304 0.03354719564054017 0.004887372005060329 0.03586918991704826 0.035584742109293396 -0.0034440478607345244 0.005644971213544748 -19.744417587337615 0.02565046153375243 0.03998548400927517 0.01861957390965063 -0.036609712397354166 0.02315582509114059 0.03175954407041546 0.013560554573463054 0.03448176022239565 24.097093936049752 0.03071661918059781 0.020578223060973642 28.87680031065185 -0.013396391786529353 0.04555858362525311 28.84144581591866 -0.016601852274690687 -0.0022215983377259383 8.79294726199606 2.2410696157497143 13.40607230862184 -67.43279862551438 21.92750288503403 -20.90915027922858 -6.050122088203301 -1.4634102124156527 -89.44451015467932 -11.113036014360558 -3.6295075875722174 0.8356530240721854 -0.4786028670851608 0.08125585848594023 -8.07909223160218 -0.037829934281638944 0.04953475818459027 44.524969334162904 0.03893089768475925 0.014932040404427804 44.58159459399391 12.472453140644442 0.022915991142309872 0.016498872248412563 0.015847511158868365 0.030870633193007768 0.029642453495779708 -0.028671113051833987 -0.005315847547179858 -0.043839959811936835 11.15404521820374 -0.021316696962652405 0.0455810508400882 0.002833812340113777 0.0442730120074349 0.04133386342930358 0.031021421064274374 -0.01093126955266381 0.04123439085698924 4.7460368594928495 -0.003636244455507623 -0.028827121310880974 -0.01833718064757412 0.049003599341244486 0.04095019330344386 0.030280125899822343 0.026307809710403456 -0.024474353834293944 -5.629105767236226 0.015498797015033854 -0.03004995310364746 -6.733792045495444 0.013583759318181295 0.02794320631228344 -6.7333505080043645 0.01697248843556019 0.04962241150027899 -0.020592257778230722 0.032778128710725885 0.04284762364465453 8.043380903008995 3.5095997886783437 -19.21700263767685 -0.004758156924724703 10.422015676857479 0.020513208971469143 -5.610400066273537 -15.699731122981271 3.148755445010451 -0.036104832061828344 -0.02783193481291335 0.0020771663332212822 -0.03341885876120203 4.649570847984456 -0.030194442110525053 12.483594273342522 -8.223141541314604 6.88360801060941 -0.024417233668732403 46.374880840430926 0.020528557930435436 -4.312847669067953 -14.790111956463642 -3.842723124620294 0.02044373785543112 -0.0490164301085183 0.02260989341355519 -0.0056585623383067765 -10.735682740724886 0.040898164213373694 
